<svg xmlns:xlink="http://www.w3.org/1999/xlink" width="25" xmlns="http://www.w3.org/2000/svg" height="25" id="screenshot-3ed5e06a-4b7b-80b7-8005-c54f69b76ac2" viewBox="-0.5 -0.5 25 25" style="-webkit-print-color-adjust: exact;" fill="none" version="1.1"><g id="shape-3ed5e06a-4b7b-80b7-8005-c54f69b76ac2" width="16" class="feather feather-help-circle" height="16" rx="0" ry="0" style="fill: rgb(0, 0, 0);"><g id="shape-3ed5e06a-4b7b-80b7-8005-c54f69b76ac4"><g class="fills" id="fills-3ed5e06a-4b7b-80b7-8005-c54f69b76ac4"><ellipse cy="12" stroke-linejoin="round" transform="matrix(1.000000, 0.000000, 0.000000, 1.000000, 0.000000, 0.000000)" style="fill: none;" ry="10" fill="none" stroke-linecap="round" rx="10" cx="12"/></g><g id="strokes-3ed5e06a-4b7b-80b7-8005-c54f69b76ac4" class="strokes"><g class="stroke-shape"><ellipse stroke-linecap="round" stroke-linejoin="round" rx="10" ry="10" cx="12" cy="12" transform="matrix(1.000000, 0.000000, 0.000000, 1.000000, 0.000000, 0.000000)" style="fill: none; stroke-width: 1; stroke: rgb(0, 0, 0); stroke-opacity: 1;"/></g></g></g><g id="shape-3ed5e06a-4b7b-80b7-8005-c54f69b76ac5"><g class="fills" id="fills-3ed5e06a-4b7b-80b7-8005-c54f69b76ac5"><path fill="none" stroke-linecap="round" stroke-linejoin="round" rx="0" ry="0" d="M9.090,9.000C9.575,7.620,10.985,6.791,12.427,7.039C13.869,7.286,14.922,8.537,14.920,10.000C14.920,12.000,11.920,13.000,11.920,13.000L11.920,14.003" style="fill: none;"/></g><g id="strokes-3ed5e06a-4b7b-80b7-8005-c54f69b76ac5" class="strokes"><g class="stroke-shape"><path stroke-linecap="round" stroke-linejoin="round" rx="0" ry="0" d="M9.090,9.000C9.575,7.620,10.985,6.791,12.427,7.039C13.869,7.286,14.922,8.537,14.920,10.000C14.920,12.000,11.920,13.000,11.920,13.000L11.920,14.003" style="fill: none; stroke-width: 1; stroke: rgb(0, 0, 0); stroke-opacity: 1;"/></g></g></g><g id="shape-3ed5e06a-4b7b-80b7-8005-c54f69b76ac6"><g class="fills" id="fills-3ed5e06a-4b7b-80b7-8005-c54f69b76ac6"><path fill="none" stroke-linejoin="round" stroke-linecap="round" rx="0" ry="0" d="M12.000,17.000L12.000,17.000Z" style="fill: none;"/></g><g id="strokes-3ed5e06a-4b7b-80b7-8005-c54f69b76ac6" class="strokes"><g class="stroke-shape"><path stroke-linejoin="round" stroke-linecap="round" rx="0" ry="0" d="M12.000,17.000L12.000,17.000Z" style="fill: none; stroke-width: 1; stroke: rgb(0, 0, 0); stroke-opacity: 1;"/></g></g></g></g></svg>